<?xml version="1.0" encoding="UTF-8" standalone="no"?>
<svg
   version="1.0"
   width="1280.000000pt"
   height="1280.000000pt"
   viewBox="0 0 1280.000000 1280.000000"
   preserveAspectRatio="xMidYMid meet"
   id="svg10"
   sodipodi:docname="erro.svg"
   inkscape:version="1.2.2 (b0a8486541, 2022-12-01)"
   xmlns:inkscape="http://www.inkscape.org/namespaces/inkscape"
   xmlns:sodipodi="http://sodipodi.sourceforge.net/DTD/sodipodi-0.dtd"
   xmlns="http://www.w3.org/2000/svg"
   xmlns:svg="http://www.w3.org/2000/svg">
  <defs
     id="defs14" />
  <sodipodi:namedview
     id="namedview12"
     pagecolor="#ffffff"
     bordercolor="#000000"
     borderopacity="0.25"
     inkscape:showpageshadow="2"
     inkscape:pageopacity="0.0"
     inkscape:pagecheckerboard="0"
     inkscape:deskcolor="#d1d1d1"
     inkscape:document-units="pt"
     showgrid="false"
     inkscape:zoom="0.48867188"
     inkscape:cx="739.76019"
     inkscape:cy="853.33333"
     inkscape:window-width="1920"
     inkscape:window-height="1015"
     inkscape:window-x="0"
     inkscape:window-y="0"
     inkscape:window-maximized="1"
     inkscape:current-layer="g8" />
  <metadata
     id="metadata2">
Created by potrace 1.15, written by Peter Selinger 2001-2017
</metadata>
  <g
     transform="translate(0.000000,1280.000000) scale(0.100000,-0.100000)"
     fill="#000000"
     stroke="none"
     id="g8">
    <path
       style="fill:#a91079;fill-opacity:1;stroke:none;stroke-width:7.73429;stroke-opacity:1"
       d="M 807.29017,1380.0252 C 702.32884,1369.1661 613.5518,1334.458 531.03118,1272.0195 392.99551,1167.5759 313.81396,993.76178 325.31858,820.45258 334.63386,680.1242 394.06199,555.96062 496.97115,461.81779 624.81237,344.86673 800.62832,298.45882 971.04977,336.68124 c 69.01263,15.47827 140.13903,48.12878 196.75543,90.32037 135.9344,101.30078 213.7279,255.53775 213.9996,424.28536 0.068,41.92075 -2.1849,65.73233 -9.9623,105.31979 -28.6352,145.75424 -118.0924,272.38664 -247.6431,350.55484 -57.3219,34.5868 -123.7489,58.352 -193.10428,69.0859 -20.66237,3.1979 -104.64134,5.7603 -123.80495,3.7777 z M 633.72769,1160.1525 c 3.16841,-1.1999 53.87583,-50.2076 112.68318,-108.906 L 853.33333,944.52209 960.2558,1051.2465 c 58.8073,58.6984 109.5148,107.7061 112.6832,108.906 8.9328,3.383 22.1911,2.5915 29.3107,-1.7498 9.7782,-5.9624 55.597,-52.0622 57.9834,-58.3389 1.1556,-3.0394 2.101,-10.5703 2.101,-16.7355 0,-14.0972 7.6924,-5.5111 -118.0612,-131.77743 l -98.85348,-99.25645 98.41938,-98.21757 c 54.1307,-54.01964 102.9365,-103.5603 108.4574,-110.09037 9.3627,-11.0742 10.0379,-12.62958 10.0379,-23.12321 0,-6.18771 -1.3049,-13.73701 -2.8998,-16.77624 -4.2553,-8.10863 -54.5529,-57.09019 -61.2317,-59.62944 -7.9057,-3.00574 -16.5551,-2.7143 -25.0733,0.84482 -4.6841,1.95714 -44.5358,40.15913 -113.49499,108.7966 L 853.35818,759.87938 745.17337,652.27406 C 640.96828,548.62711 636.65281,544.61839 627.86118,543.3 c -17.37767,-2.60594 -22.75468,0.50515 -52.1006,30.14491 -14.79134,14.93943 -27.91364,29.17402 -29.16068,31.63239 -1.24705,2.45838 -2.26737,9.54727 -2.26737,15.75307 0,10.53304 0.66747,12.07274 10.03795,23.15611 5.52086,6.53007 54.32667,56.07073 108.45735,110.09037 l 98.41942,98.21757 -98.85349,99.25645 C 536.64015,1077.8172 544.33253,1069.2311 544.33253,1083.3283 c 0,6.1652 0.94544,13.6961 2.101,16.7355 2.38643,6.2767 48.20523,52.3765 57.98347,58.3389 7.11954,4.3413 20.37783,5.1328 29.31069,1.7498 z"
       id="path3239"
       transform="matrix(7.5,0,0,-7.5,0,12800)" />
  </g>
</svg>
